<?xml version="1.0" encoding="UTF-8"?>
<svg id="Layer_2" xmlns="http://www.w3.org/2000/svg" viewBox="0 0 1397.13 200">
<title>Battlefield 6 logo</title>
  <defs>
    <style>
      .cls-1 {
        fill: #000;
      }
    </style>
  </defs>
  <g id="Layer_1-2">
    <g>
      <g>
        <g>
          <path class="cls-1" d="M100.42,66.49v-30.44C100.42-2.65,63.47.04,55.53.04H0v199.92h55.53c7.94,0,44.89,2.69,44.89-36.02v-30.44c0-25.52-11.32-31.73-14.92-33.51,3.6-1.78,14.92-7.99,14.92-33.51ZM32.46,29.53h22.4c10.76,0,12.97,3.73,12.97,11.08v33.43c0,6.92-3.94,11.21-12.84,11.21h-22.53V29.53ZM67.83,159.38c0,7.35-2.21,11.08-12.97,11.08h-22.4v-55.72h22.53c8.9,0,12.84,4.29,12.84,11.21v33.43Z"/>
          <path class="cls-1" d="M1196.31,36.06C1196.31-2.65,1159.36.04,1151.42.04h-55.53v199.92h55.53c7.94,0,44.89,2.69,44.89-36.02V36.06ZM1163.72,159.38c0,7.35-2.21,11.08-12.97,11.08h-22.4V29.49h22.53c8.9,0,12.84,4.29,12.84,11.21v118.68Z"/>
          <path class="cls-1" d="M664.34,0v29.49h-50.57v55.76h47.57v29.49h-47.57v55.76h50.57v29.5h-83.03V0h83.03Z"/>
          <path class="cls-1" d="M962.86,0v29.49h-50.57v55.76h47.57v29.49h-47.57v55.76h50.57v29.5h-83.03V0h83.03Z"/>
          <path class="cls-1" d="M780.7,0v29.49h-50.57v55.76h47.57v29.49h-47.57v85.26h-32.46V0h83.03Z"/>
          <path class="cls-1" d="M1028.65,0v170.5h50.57v29.5h-83.03V0h32.46Z"/>
          <path class="cls-1" d="M514.08,0v170.5h50.57v29.5h-83.03V0h32.46Z"/>
          <path class="cls-1" d="M846.5,0v200h-32.46V0h32.46Z"/>
          <path class="cls-1" d="M205.98,200h32.32L207.35,0h-59.32l-30.95,200h32.32l7.77-55.76h41.05l7.77,55.76ZM161.29,114.75l11.89-85.25h9l11.89,85.25h-32.79Z"/>
          <polygon class="cls-1" points="460.54 0 355.87 0 355.87 29.5 391.97 29.5 391.97 200 424.43 200 424.43 29.5 460.54 29.5 460.54 0"/>
          <polygon class="cls-1" points="345.33 0 240.66 0 240.66 29.5 276.76 29.5 276.76 200 309.22 200 309.22 29.5 345.33 29.5 345.33 0"/>
        </g>
        <g>
          <path class="cls-1" d="M1212.55,2.51v12.49h-2.63V2.51h-5.06V0h12.76v2.51h-5.06Z"/>
          <path class="cls-1" d="M1230.58,15.03V4.77l-2.99,6.57h-1.73l-2.99-6.55v10.23h-2.63V.03h3.01l3.51,7.4,3.46-7.4h2.99v15h-2.63Z"/>
        </g>
      </g>
      <path class="cls-1" d="M1352.26,77.32h-13.32L1371.63,0h-35.32l-37.09,88.28c-1.77,4.5-2.5,7.73-2.5,12.5v63.14c0,38.73,36.96,36.05,44.87,36.05h10.68c7.91,0,44.87,2.68,44.87-36.05v-50.59c0-38.68-36.96-36-44.87-36ZM1364.54,170.46h-35.23v-63.64h35.23v63.64Z"/>
    </g>
  </g>
</svg>